<svg width="654" height="173" viewBox="0 0 654 173" fill="none" xmlns="http://www.w3.org/2000/svg">
<path d="M177.1 46H188.1V74.5H199.9V46H210.9V116H199.9V84.5H188.1V116H177.1V46ZM234.992 117C229.592 117 225.459 115.467 222.592 112.4C219.726 109.333 218.292 105 218.292 99.4V62.6C218.292 57 219.726 52.6667 222.592 49.6C225.459 46.5333 229.592 45 234.992 45C240.392 45 244.526 46.5333 247.392 49.6C250.259 52.6667 251.692 57 251.692 62.6V99.4C251.692 105 250.259 109.333 247.392 112.4C244.526 115.467 240.392 117 234.992 117ZM234.992 107C238.792 107 240.692 104.7 240.692 100.1V61.9C240.692 57.3 238.792 55 234.992 55C231.192 55 229.292 57.3 229.292 61.9V100.1C229.292 104.7 231.192 107 234.992 107ZM259.131 46H274.831L281.831 96.1H282.031L289.031 46H304.731V116H294.331V63H294.131L286.131 116H276.931L268.931 63H268.731V116H259.131V46ZM312.94 46H342.94V56H323.94V74.5H339.04V84.5H323.94V106H342.94V116H312.94V46ZM380.784 117C375.517 117 371.484 115.5 368.684 112.5C365.95 109.5 364.584 105.267 364.584 99.8V62.2C364.584 56.7333 365.95 52.5 368.684 49.5C371.484 46.5 375.517 45 380.784 45C386.05 45 390.05 46.5 392.784 49.5C395.584 52.5 396.984 56.7333 396.984 62.2V69.6H386.584V61.5C386.584 57.1667 384.75 55 381.084 55C377.417 55 375.584 57.1667 375.584 61.5V100.6C375.584 104.867 377.417 107 381.084 107C384.75 107 386.584 104.867 386.584 100.6V89.9H396.984V99.8C396.984 105.267 395.584 109.5 392.784 112.5C390.05 115.5 386.05 117 380.784 117ZM403.565 46H414.565V106H432.665V116H403.565V46ZM437.94 46H467.94V56H448.94V74.5H464.04V84.5H448.94V106H467.94V116H437.94V46ZM482.768 46H497.668L509.068 116H498.068L496.068 102.1V102.3H483.568L481.568 116H471.368L482.768 46ZM494.768 92.8L489.868 58.2H489.668L484.868 92.8H494.768ZM514.405 46H528.205L538.905 87.9H539.105V46H548.905V116H537.605L524.405 64.9H524.205V116H514.405V46ZM557.08 46H568.08V116H557.08V46ZM576.319 46H590.119L600.819 87.9H601.019V46H610.819V116H599.519L586.319 64.9H586.119V116H576.319V46ZM634.595 117C629.261 117 625.195 115.5 622.395 112.5C619.595 109.433 618.195 105.067 618.195 99.4V62.6C618.195 56.9333 619.595 52.6 622.395 49.6C625.195 46.5333 629.261 45 634.595 45C639.928 45 643.995 46.5333 646.795 49.6C649.595 52.6 650.995 56.9333 650.995 62.6V68.6H640.595V61.9C640.595 57.3 638.695 55 634.895 55C631.095 55 629.195 57.3 629.195 61.9V100.2C629.195 104.733 631.095 107 634.895 107C638.695 107 640.595 104.733 640.595 100.2V86.5H635.095V76.5H650.995V99.4C650.995 105.067 649.595 109.433 646.795 112.5C643.995 115.5 639.928 117 634.595 117Z" fill="#5E37A4"/>
<path d="M187.038 162.488C185.313 162.488 183.726 162.171 182.277 161.536C180.845 160.901 179.592 160.006 178.518 158.851C177.46 157.695 176.638 156.328 176.052 154.749C175.482 153.154 175.197 151.412 175.197 149.524V148.475C175.197 146.44 175.498 144.601 176.101 142.957C176.703 141.313 177.533 139.905 178.591 138.733C179.649 137.562 180.853 136.666 182.204 136.048C183.571 135.413 185.004 135.096 186.501 135.096C188.177 135.096 189.667 135.397 190.969 135.999C192.271 136.585 193.361 137.423 194.24 138.514C195.135 139.588 195.811 140.866 196.267 142.347C196.722 143.812 196.95 145.431 196.95 147.205V148.987H176.955V146.497H194.045V146.155C194.012 144.674 193.711 143.291 193.142 142.005C192.588 140.703 191.758 139.645 190.651 138.831C189.545 138.017 188.161 137.61 186.501 137.61C185.264 137.61 184.125 137.871 183.083 138.392C182.058 138.912 181.171 139.661 180.422 140.638C179.689 141.598 179.12 142.745 178.713 144.08C178.322 145.398 178.127 146.863 178.127 148.475V149.524C178.127 150.989 178.339 152.356 178.762 153.626C179.201 154.879 179.82 155.986 180.617 156.946C181.431 157.907 182.391 158.655 183.498 159.192C184.605 159.729 185.826 159.998 187.16 159.998C188.723 159.998 190.106 159.713 191.311 159.144C192.515 158.558 193.597 157.638 194.558 156.385L196.389 157.801C195.819 158.647 195.103 159.428 194.24 160.145C193.394 160.861 192.377 161.43 191.188 161.854C190 162.277 188.617 162.488 187.038 162.488ZM254.359 135.584L261.488 146.253L268.642 135.584H272.108L263.148 148.523L272.475 162H269.057L261.513 150.843L253.993 162H250.575L259.901 148.523L250.941 135.584H254.359ZM330.958 140.662V172.156H328.028V135.584H330.763L330.958 140.662ZM349.317 148.548V149.061C349.317 151.03 349.09 152.837 348.634 154.48C348.178 156.124 347.519 157.549 346.656 158.753C345.81 159.941 344.76 160.861 343.507 161.512C342.254 162.163 340.829 162.488 339.234 162.488C337.656 162.488 336.248 162.244 335.011 161.756C333.774 161.268 332.708 160.576 331.812 159.681C330.934 158.769 330.226 157.711 329.688 156.507C329.168 155.286 328.801 153.951 328.59 152.503V145.74C328.834 144.145 329.233 142.697 329.786 141.395C330.34 140.092 331.048 138.969 331.91 138.025C332.789 137.081 333.831 136.357 335.035 135.853C336.24 135.348 337.615 135.096 339.161 135.096C340.772 135.096 342.205 135.413 343.458 136.048C344.728 136.666 345.794 137.57 346.656 138.758C347.535 139.93 348.194 141.346 348.634 143.006C349.09 144.65 349.317 146.497 349.317 148.548ZM346.388 149.061V148.548C346.388 147.002 346.225 145.569 345.899 144.251C345.59 142.933 345.11 141.785 344.459 140.809C343.824 139.816 343.01 139.043 342.018 138.489C341.041 137.936 339.877 137.659 338.526 137.659C337.127 137.659 335.93 137.895 334.938 138.367C333.961 138.823 333.147 139.433 332.496 140.198C331.845 140.947 331.332 141.769 330.958 142.664C330.584 143.559 330.307 144.438 330.128 145.301V153.089C330.437 154.326 330.934 155.473 331.617 156.531C332.301 157.573 333.212 158.411 334.352 159.046C335.507 159.664 336.915 159.974 338.575 159.974C339.91 159.974 341.065 159.697 342.042 159.144C343.019 158.59 343.824 157.817 344.459 156.824C345.11 155.831 345.59 154.676 345.899 153.357C346.225 152.039 346.388 150.607 346.388 149.061ZM409.217 139.954V162H406.312V135.584H409.144L409.217 139.954ZM418.567 135.389L418.494 138.074C418.169 138.025 417.851 137.985 417.542 137.952C417.233 137.92 416.899 137.903 416.541 137.903C415.271 137.903 414.157 138.139 413.196 138.611C412.252 139.067 411.455 139.71 410.804 140.54C410.153 141.354 409.656 142.314 409.314 143.421C408.973 144.511 408.777 145.683 408.729 146.937L407.654 147.352C407.654 145.626 407.833 144.023 408.191 142.542C408.549 141.061 409.095 139.767 409.827 138.66C410.576 137.537 411.512 136.666 412.635 136.048C413.774 135.413 415.109 135.096 416.639 135.096C417.013 135.096 417.379 135.128 417.737 135.193C418.112 135.242 418.388 135.307 418.567 135.389ZM483.374 162.488C481.649 162.488 480.062 162.171 478.613 161.536C477.181 160.901 475.928 160.006 474.854 158.851C473.796 157.695 472.974 156.328 472.388 154.749C471.818 153.154 471.533 151.412 471.533 149.524V148.475C471.533 146.44 471.834 144.601 472.437 142.957C473.039 141.313 473.869 139.905 474.927 138.733C475.985 137.562 477.189 136.666 478.54 136.048C479.907 135.413 481.34 135.096 482.837 135.096C484.513 135.096 486.003 135.397 487.305 135.999C488.607 136.585 489.697 137.423 490.576 138.514C491.471 139.588 492.147 140.866 492.603 142.347C493.058 143.812 493.286 145.431 493.286 147.205V148.987H473.291V146.497H490.381V146.155C490.348 144.674 490.047 143.291 489.478 142.005C488.924 140.703 488.094 139.645 486.987 138.831C485.881 138.017 484.497 137.61 482.837 137.61C481.6 137.61 480.461 137.871 479.419 138.392C478.394 138.912 477.507 139.661 476.758 140.638C476.025 141.598 475.456 142.745 475.049 144.08C474.658 145.398 474.463 146.863 474.463 148.475V149.524C474.463 150.989 474.674 152.356 475.098 153.626C475.537 154.879 476.156 155.986 476.953 156.946C477.767 157.907 478.727 158.655 479.834 159.192C480.941 159.729 482.161 159.998 483.496 159.998C485.059 159.998 486.442 159.713 487.646 159.144C488.851 158.558 489.933 157.638 490.894 156.385L492.725 157.801C492.155 158.647 491.439 159.428 490.576 160.145C489.73 160.861 488.713 161.43 487.524 161.854C486.336 162.277 484.953 162.488 483.374 162.488ZM565.368 155.262C565.368 154.546 565.189 153.838 564.831 153.138C564.473 152.438 563.781 151.795 562.756 151.209C561.747 150.623 560.257 150.127 558.288 149.72C556.823 149.394 555.513 149.028 554.357 148.621C553.218 148.214 552.258 147.726 551.477 147.156C550.695 146.587 550.101 145.903 549.694 145.105C549.287 144.308 549.084 143.364 549.084 142.273C549.084 141.297 549.296 140.377 549.719 139.515C550.158 138.636 550.777 137.871 551.574 137.22C552.388 136.552 553.365 136.032 554.504 135.657C555.66 135.283 556.953 135.096 558.386 135.096C560.42 135.096 562.162 135.446 563.61 136.146C565.075 136.829 566.19 137.765 566.955 138.953C567.736 140.141 568.127 141.484 568.127 142.981H565.222C565.222 142.07 564.953 141.207 564.416 140.394C563.895 139.58 563.122 138.912 562.097 138.392C561.088 137.871 559.851 137.61 558.386 137.61C556.872 137.61 555.643 137.838 554.699 138.294C553.755 138.75 553.063 139.327 552.624 140.027C552.201 140.727 551.989 141.451 551.989 142.2C551.989 142.786 552.079 143.323 552.258 143.812C552.453 144.284 552.795 144.723 553.283 145.13C553.788 145.537 554.504 145.919 555.432 146.277C556.359 146.635 557.564 146.985 559.045 147.327C561.177 147.799 562.919 148.377 564.27 149.061C565.637 149.728 566.646 150.558 567.297 151.551C567.948 152.527 568.273 153.715 568.273 155.115C568.273 156.206 568.046 157.207 567.59 158.118C567.134 159.013 566.475 159.786 565.612 160.438C564.766 161.089 563.741 161.593 562.536 161.951C561.348 162.309 560.013 162.488 558.532 162.488C556.302 162.488 554.414 162.122 552.868 161.39C551.338 160.641 550.174 159.664 549.377 158.46C548.596 157.239 548.205 155.945 548.205 154.578H551.11C551.208 155.945 551.639 157.028 552.404 157.825C553.169 158.606 554.105 159.16 555.212 159.485C556.335 159.811 557.442 159.974 558.532 159.974C560.03 159.974 561.283 159.754 562.292 159.314C563.301 158.875 564.066 158.297 564.587 157.581C565.108 156.865 565.368 156.092 565.368 155.262ZM641.21 155.262C641.21 154.546 641.031 153.838 640.673 153.138C640.315 152.438 639.623 151.795 638.598 151.209C637.589 150.623 636.099 150.127 634.13 149.72C632.665 149.394 631.355 149.028 630.199 148.621C629.06 148.214 628.1 147.726 627.318 147.156C626.537 146.587 625.943 145.903 625.536 145.105C625.129 144.308 624.926 143.364 624.926 142.273C624.926 141.297 625.137 140.377 625.561 139.515C626 138.636 626.618 137.871 627.416 137.22C628.23 136.552 629.206 136.032 630.346 135.657C631.501 135.283 632.795 135.096 634.228 135.096C636.262 135.096 638.004 135.446 639.452 136.146C640.917 136.829 642.032 137.765 642.797 138.953C643.578 140.141 643.969 141.484 643.969 142.981H641.063C641.063 142.07 640.795 141.207 640.258 140.394C639.737 139.58 638.964 138.912 637.938 138.392C636.929 137.871 635.692 137.61 634.228 137.61C632.714 137.61 631.485 137.838 630.541 138.294C629.597 138.75 628.905 139.327 628.466 140.027C628.043 140.727 627.831 141.451 627.831 142.2C627.831 142.786 627.921 143.323 628.1 143.812C628.295 144.284 628.637 144.723 629.125 145.13C629.63 145.537 630.346 145.919 631.273 146.277C632.201 146.635 633.406 146.985 634.887 147.327C637.019 147.799 638.76 148.377 640.111 149.061C641.479 149.728 642.488 150.558 643.139 151.551C643.79 152.527 644.115 153.715 644.115 155.115C644.115 156.206 643.887 157.207 643.432 158.118C642.976 159.013 642.317 159.786 641.454 160.438C640.608 161.089 639.582 161.593 638.378 161.951C637.19 162.309 635.855 162.488 634.374 162.488C632.144 162.488 630.256 162.122 628.71 161.39C627.18 160.641 626.016 159.664 625.219 158.46C624.438 157.239 624.047 155.945 624.047 154.578H626.952C627.05 155.945 627.481 157.028 628.246 157.825C629.011 158.606 629.947 159.16 631.054 159.485C632.177 159.811 633.284 159.974 634.374 159.974C635.871 159.974 637.125 159.754 638.134 159.314C639.143 158.875 639.908 158.297 640.429 157.581C640.95 156.865 641.21 156.092 641.21 155.262Z" fill="#FFC60B"/>
<g clip-path="url(#clip0_9_17)">
<path d="M118.953 74.7188C115.278 74.7188 112.063 77.9344 112.063 81.6094V77.0156C112.063 73.3406 108.847 70.125 105.172 70.125C101.497 70.125 98.2814 73.3406 98.2814 77.0156V72.4219C98.2814 68.7469 95.0658 65.5312 91.3908 65.5312C87.7158 65.5312 84.5002 68.7469 84.5002 72.4219V77.0156C84.5002 73.3406 81.2846 70.125 77.6096 70.125C73.9346 70.125 70.7189 73.3406 70.7189 77.0156V111.469V122.494L59.2346 111.009C56.4783 108.253 52.3439 107.794 49.5877 110.091C45.9127 112.847 45.4533 118.359 48.6689 121.575L79.9064 152.812H116.656C122.628 137.653 125.844 121.575 125.844 105.038V81.6094C125.844 77.9344 122.628 74.7188 118.953 74.7188Z" fill="#5E37A4"/>
<path d="M153.406 89.4188C150.65 83.9063 149.731 77.475 151.569 71.0438C152.947 65.9906 153.406 60.4781 152.487 54.9656C150.191 39.8063 137.787 27.4031 122.628 24.6469C114.359 23.2688 106.091 24.6469 99.2 28.3219C92.3094 31.9969 84.5 32.9156 77.15 30.1594C71.6375 28.3219 65.6656 27.8625 59.2343 28.7813C44.5343 31.9969 32.5906 43.9406 29.8343 58.6406V59.1C27.5375 72.4219 22.9437 85.7438 15.5937 97.6875C11.4593 105.038 9.62184 113.766 11.4593 122.494C14.2156 137.194 25.7 149.138 40.4 151.894C42.6968 152.353 45.4531 152.813 47.75 152.813C53.2625 152.813 58.775 151.434 63.3687 149.138L41.7781 127.547C38.5625 124.331 36.725 119.278 37.1843 114.684C37.6437 109.631 39.9406 105.497 44.075 102.741C49.1281 99.0657 56.0187 98.6063 61.5312 101.822V77.475C61.5312 68.7469 68.8812 61.3969 77.6093 61.3969C78.5281 61.3969 78.9875 61.3969 79.9062 61.3969C82.6625 58.6406 86.7968 56.8031 91.3906 56.8031C95.9843 56.8031 100.119 58.6406 102.875 61.3969C107.928 60.4781 113.441 62.3156 116.656 65.9906C117.575 65.9906 118.034 65.9906 118.953 65.9906C127.681 65.9906 135.031 73.3406 135.031 82.0688V105.497C135.031 118.359 133.194 130.763 129.978 143.166C136.409 141.788 141.922 138.572 146.975 133.978C154.325 127.088 158.459 117.441 158.459 107.334C158 100.903 156.622 94.9313 153.406 89.4188Z" fill="#5E37A4"/>
</g>
<g clip-path="url(#clip1_9_17)">
<path d="M24.4418 16.6752C22.4323 21.199 24.4893 26.5444 29.0131 28.5539C33.5368 30.5635 38.8822 28.5064 40.8918 23.9826C42.9013 19.4589 40.8442 14.1135 36.3205 12.1039C31.7967 10.0944 26.4513 12.1515 24.4418 16.6752ZM33.1116 16.8335C33.1231 17.0848 33.1345 17.3361 33.0432 17.5417C32.9062 17.8502 32.5636 18.0673 32.2666 18.1815C31.5698 18.3644 30.8846 18.7986 30.6105 19.4155C30.3365 20.0324 29.7426 20.2609 29.1257 19.9869C28.5088 19.7129 28.2803 19.1189 28.5543 18.5021C29.148 17.1655 30.3129 16.2058 31.8092 15.8857C32.4603 15.8056 33.0315 16.1824 33.1116 16.8335Z" fill="#5D37A5"/>
<path d="M18.5043 30.0408C17.2255 32.9196 13.9588 34.1767 11.0801 32.8979C8.20133 31.6191 6.94422 28.3524 8.22302 25.4737C9.50182 22.595 12.7685 21.3379 15.6472 22.6166C18.5259 23.8954 19.7831 27.1621 18.5043 30.0408Z" fill="#5D37A5"/>
<path d="M29.2429 39.1198C28.1011 41.6901 25.1314 42.8329 22.5611 41.6912C19.9908 40.5494 18.848 37.5797 19.9898 35.0094C21.1316 32.4391 24.1012 31.2963 26.6715 32.4381C29.2419 33.5798 30.3847 36.5495 29.2429 39.1198Z" fill="#5D37A5"/>
<path d="M15.8747 16.5626C15.6006 17.1795 15.0067 17.408 14.3898 17.134L11.3055 15.7639C10.6886 15.4898 10.46 14.8959 10.7341 14.279C11.0081 13.6622 11.602 13.4336 12.2189 13.7076L15.3033 15.0778C15.9201 15.3518 16.1487 15.9457 15.8747 16.5626Z" fill="#5D37A5"/>
<path d="M23.1839 11.1926L21.8137 14.277C21.5397 14.8938 20.9458 15.1224 20.3289 14.8484C19.712 14.5743 19.4835 13.9804 19.7575 13.3635L21.1276 10.2792C21.4017 9.66229 21.9956 9.43373 22.6125 9.70776C23.2293 9.98179 23.4579 10.5757 23.1839 11.1926Z" fill="#5D37A5"/>
<path d="M18.3869 14.2319C18.2498 14.5404 18.0557 14.7003 17.7587 14.8146C17.1648 15.0431 16.5479 14.7691 16.3194 14.1752L15.1194 11.057C14.8908 10.4631 15.1649 9.84622 15.7588 9.61766C16.3527 9.38909 16.9696 9.66312 17.1982 10.2571L18.3981 13.3752C18.5124 13.6722 18.5239 13.9235 18.3869 14.2319Z" fill="#5D37A5"/>
</g>
<defs>
<clipPath id="clip0_9_17">
<rect width="147" height="147" fill="white" transform="translate(11 15)"/>
</clipPath>
<clipPath id="clip1_9_17">
<rect width="36" height="36" fill="white" transform="translate(0 32.9) rotate(-66.0482)"/>
</clipPath>
</defs>
</svg>
