<svg width="685" height="158" viewBox="0 0 685 158" fill="none" xmlns="http://www.w3.org/2000/svg">
<path d="M208.1 31H219.1V59.5H230.9V31H241.9V101H230.9V69.5H219.1V101H208.1V31ZM265.992 102C260.592 102 256.459 100.467 253.592 97.4C250.726 94.3333 249.292 90 249.292 84.4V47.6C249.292 42 250.726 37.6666 253.592 34.6C256.459 31.5333 260.592 30 265.992 30C271.392 30 275.526 31.5333 278.392 34.6C281.259 37.6666 282.692 42 282.692 47.6V84.4C282.692 90 281.259 94.3333 278.392 97.4C275.526 100.467 271.392 102 265.992 102ZM265.992 92C269.792 92 271.692 89.7 271.692 85.1V46.9C271.692 42.3 269.792 40 265.992 40C262.192 40 260.292 42.3 260.292 46.9V85.1C260.292 89.7 262.192 92 265.992 92ZM290.131 31H305.831L312.831 81.1H313.031L320.031 31H335.731V101H325.331V48H325.131L317.131 101H307.931L299.931 48H299.731V101H290.131V31ZM343.94 31H373.94V41H354.94V59.5H370.04V69.5H354.94V91H373.94V101H343.94V31ZM411.784 102C406.517 102 402.484 100.5 399.684 97.5C396.95 94.5 395.584 90.2666 395.584 84.8V47.2C395.584 41.7333 396.95 37.5 399.684 34.5C402.484 31.5 406.517 30 411.784 30C417.05 30 421.05 31.5 423.784 34.5C426.584 37.5 427.984 41.7333 427.984 47.2V54.6H417.584V46.5C417.584 42.1666 415.75 40 412.084 40C408.417 40 406.584 42.1666 406.584 46.5V85.6C406.584 89.8666 408.417 92 412.084 92C415.75 92 417.584 89.8666 417.584 85.6V74.9H427.984V84.8C427.984 90.2666 426.584 94.5 423.784 97.5C421.05 100.5 417.05 102 411.784 102ZM434.565 31H445.565V91H463.665V101H434.565V31ZM468.94 31H498.94V41H479.94V59.5H495.04V69.5H479.94V91H498.94V101H468.94V31ZM513.768 31H528.668L540.068 101H529.068L527.068 87.1V87.3H514.568L512.568 101H502.368L513.768 31ZM525.768 77.8L520.868 43.2H520.668L515.868 77.8H525.768ZM545.405 31H559.205L569.905 72.9H570.105V31H579.905V101H568.605L555.405 49.9H555.205V101H545.405V31ZM588.08 31H599.08V101H588.08V31ZM607.319 31H621.119L631.819 72.9H632.019V31H641.819V101H630.519L617.319 49.9H617.119V101H607.319V31ZM665.595 102C660.261 102 656.195 100.5 653.395 97.5C650.595 94.4333 649.195 90.0666 649.195 84.4V47.6C649.195 41.9333 650.595 37.6 653.395 34.6C656.195 31.5333 660.261 30 665.595 30C670.928 30 674.995 31.5333 677.795 34.6C680.595 37.6 681.995 41.9333 681.995 47.6V53.6H671.595V46.9C671.595 42.3 669.695 40 665.895 40C662.095 40 660.195 42.3 660.195 46.9V85.2C660.195 89.7333 662.095 92 665.895 92C669.695 92 671.595 89.7333 671.595 85.2V71.5H666.095V61.5H681.995V84.4C681.995 90.0666 680.595 94.4333 677.795 97.5C674.995 100.5 670.928 102 665.595 102Z" fill="#5E37A4"/>
<path d="M218.038 147.488C216.313 147.488 214.726 147.171 213.277 146.536C211.845 145.901 210.592 145.006 209.518 143.851C208.46 142.695 207.638 141.328 207.052 139.749C206.482 138.154 206.197 136.412 206.197 134.524V133.475C206.197 131.44 206.498 129.601 207.101 127.957C207.703 126.313 208.533 124.905 209.591 123.733C210.649 122.561 211.853 121.666 213.204 121.048C214.571 120.413 216.004 120.096 217.501 120.096C219.177 120.096 220.667 120.397 221.969 120.999C223.271 121.585 224.361 122.423 225.24 123.514C226.135 124.588 226.811 125.866 227.267 127.347C227.722 128.811 227.95 130.431 227.95 132.205V133.987H207.955V131.497H225.045V131.155C225.012 129.674 224.711 128.291 224.142 127.005C223.588 125.703 222.758 124.645 221.651 123.831C220.545 123.017 219.161 122.61 217.501 122.61C216.264 122.61 215.125 122.871 214.083 123.392C213.058 123.912 212.171 124.661 211.422 125.638C210.689 126.598 210.12 127.745 209.713 129.08C209.322 130.398 209.127 131.863 209.127 133.475V134.524C209.127 135.989 209.339 137.356 209.762 138.626C210.201 139.879 210.82 140.986 211.617 141.946C212.431 142.907 213.391 143.655 214.498 144.192C215.605 144.729 216.826 144.998 218.16 144.998C219.723 144.998 221.106 144.713 222.311 144.144C223.515 143.558 224.597 142.638 225.558 141.385L227.389 142.801C226.819 143.647 226.103 144.428 225.24 145.145C224.394 145.861 223.377 146.43 222.188 146.853C221 147.277 219.617 147.488 218.038 147.488ZM285.359 120.584L292.488 131.253L299.642 120.584H303.108L294.148 133.523L303.475 147H300.057L292.513 135.843L284.993 147H281.575L290.901 133.523L281.941 120.584H285.359ZM361.958 125.662V157.156H359.028V120.584H361.763L361.958 125.662ZM380.317 133.548V134.061C380.317 136.03 380.09 137.837 379.634 139.48C379.178 141.124 378.519 142.548 377.656 143.753C376.81 144.941 375.76 145.861 374.507 146.512C373.254 147.163 371.829 147.488 370.234 147.488C368.656 147.488 367.248 147.244 366.011 146.756C364.774 146.268 363.708 145.576 362.812 144.681C361.934 143.769 361.226 142.711 360.688 141.507C360.168 140.286 359.801 138.951 359.59 137.503V130.74C359.834 129.145 360.233 127.697 360.786 126.395C361.34 125.092 362.048 123.969 362.91 123.025C363.789 122.081 364.831 121.357 366.035 120.853C367.24 120.348 368.615 120.096 370.161 120.096C371.772 120.096 373.205 120.413 374.458 121.048C375.728 121.666 376.794 122.57 377.656 123.758C378.535 124.93 379.194 126.346 379.634 128.006C380.09 129.65 380.317 131.497 380.317 133.548ZM377.388 134.061V133.548C377.388 132.002 377.225 130.569 376.899 129.251C376.59 127.933 376.11 126.785 375.459 125.809C374.824 124.816 374.01 124.043 373.018 123.489C372.041 122.936 370.877 122.659 369.526 122.659C368.127 122.659 366.93 122.895 365.938 123.367C364.961 123.823 364.147 124.433 363.496 125.198C362.845 125.947 362.332 126.769 361.958 127.664C361.584 128.559 361.307 129.438 361.128 130.301V138.089C361.437 139.326 361.934 140.473 362.617 141.531C363.301 142.573 364.212 143.411 365.352 144.046C366.507 144.664 367.915 144.974 369.575 144.974C370.91 144.974 372.065 144.697 373.042 144.144C374.019 143.59 374.824 142.817 375.459 141.824C376.11 140.831 376.59 139.676 376.899 138.357C377.225 137.039 377.388 135.607 377.388 134.061ZM440.217 124.954V147H437.312V120.584H440.144L440.217 124.954ZM449.567 120.389L449.494 123.074C449.169 123.025 448.851 122.985 448.542 122.952C448.233 122.92 447.899 122.903 447.541 122.903C446.271 122.903 445.157 123.139 444.196 123.611C443.252 124.067 442.455 124.71 441.804 125.54C441.153 126.354 440.656 127.314 440.314 128.421C439.973 129.511 439.777 130.683 439.729 131.936L438.654 132.352C438.654 130.626 438.833 129.023 439.191 127.542C439.549 126.061 440.095 124.767 440.827 123.66C441.576 122.537 442.512 121.666 443.635 121.048C444.774 120.413 446.109 120.096 447.639 120.096C448.013 120.096 448.379 120.128 448.737 120.193C449.112 120.242 449.388 120.307 449.567 120.389ZM514.374 147.488C512.649 147.488 511.062 147.171 509.613 146.536C508.181 145.901 506.928 145.006 505.854 143.851C504.796 142.695 503.974 141.328 503.388 139.749C502.818 138.154 502.533 136.412 502.533 134.524V133.475C502.533 131.44 502.834 129.601 503.437 127.957C504.039 126.313 504.869 124.905 505.927 123.733C506.985 122.561 508.189 121.666 509.54 121.048C510.907 120.413 512.34 120.096 513.837 120.096C515.513 120.096 517.003 120.397 518.305 120.999C519.607 121.585 520.697 122.423 521.576 123.514C522.471 124.588 523.147 125.866 523.603 127.347C524.058 128.811 524.286 130.431 524.286 132.205V133.987H504.291V131.497H521.381V131.155C521.348 129.674 521.047 128.291 520.478 127.005C519.924 125.703 519.094 124.645 517.987 123.831C516.881 123.017 515.497 122.61 513.837 122.61C512.6 122.61 511.461 122.871 510.419 123.392C509.394 123.912 508.507 124.661 507.758 125.638C507.025 126.598 506.456 127.745 506.049 129.08C505.658 130.398 505.463 131.863 505.463 133.475V134.524C505.463 135.989 505.674 137.356 506.098 138.626C506.537 139.879 507.156 140.986 507.953 141.946C508.767 142.907 509.727 143.655 510.834 144.192C511.941 144.729 513.161 144.998 514.496 144.998C516.059 144.998 517.442 144.713 518.646 144.144C519.851 143.558 520.933 142.638 521.894 141.385L523.725 142.801C523.155 143.647 522.439 144.428 521.576 145.145C520.73 145.861 519.713 146.43 518.524 146.853C517.336 147.277 515.953 147.488 514.374 147.488ZM596.368 140.262C596.368 139.546 596.189 138.838 595.831 138.138C595.473 137.438 594.781 136.795 593.756 136.209C592.747 135.623 591.257 135.127 589.288 134.72C587.823 134.394 586.513 134.028 585.357 133.621C584.218 133.214 583.258 132.726 582.477 132.156C581.695 131.587 581.101 130.903 580.694 130.105C580.287 129.308 580.084 128.364 580.084 127.273C580.084 126.297 580.296 125.377 580.719 124.515C581.158 123.636 581.777 122.871 582.574 122.22C583.388 121.552 584.365 121.032 585.504 120.657C586.66 120.283 587.953 120.096 589.386 120.096C591.42 120.096 593.162 120.446 594.61 121.145C596.075 121.829 597.19 122.765 597.955 123.953C598.736 125.141 599.127 126.484 599.127 127.981H596.222C596.222 127.07 595.953 126.207 595.416 125.394C594.895 124.58 594.122 123.912 593.097 123.392C592.088 122.871 590.851 122.61 589.386 122.61C587.872 122.61 586.643 122.838 585.699 123.294C584.755 123.75 584.063 124.327 583.624 125.027C583.201 125.727 582.989 126.451 582.989 127.2C582.989 127.786 583.079 128.323 583.258 128.811C583.453 129.283 583.795 129.723 584.283 130.13C584.788 130.537 585.504 130.919 586.432 131.277C587.359 131.635 588.564 131.985 590.045 132.327C592.177 132.799 593.919 133.377 595.27 134.061C596.637 134.728 597.646 135.558 598.297 136.551C598.948 137.527 599.273 138.715 599.273 140.115C599.273 141.206 599.046 142.207 598.59 143.118C598.134 144.013 597.475 144.786 596.612 145.437C595.766 146.089 594.741 146.593 593.536 146.951C592.348 147.309 591.013 147.488 589.532 147.488C587.302 147.488 585.414 147.122 583.868 146.39C582.338 145.641 581.174 144.664 580.377 143.46C579.596 142.239 579.205 140.945 579.205 139.578H582.11C582.208 140.945 582.639 142.028 583.404 142.825C584.169 143.606 585.105 144.16 586.212 144.485C587.335 144.811 588.442 144.974 589.532 144.974C591.03 144.974 592.283 144.754 593.292 144.314C594.301 143.875 595.066 143.297 595.587 142.581C596.108 141.865 596.368 141.092 596.368 140.262ZM672.21 140.262C672.21 139.546 672.031 138.838 671.673 138.138C671.315 137.438 670.623 136.795 669.598 136.209C668.589 135.623 667.099 135.127 665.13 134.72C663.665 134.394 662.355 134.028 661.199 133.621C660.06 133.214 659.1 132.726 658.318 132.156C657.537 131.587 656.943 130.903 656.536 130.105C656.129 129.308 655.926 128.364 655.926 127.273C655.926 126.297 656.137 125.377 656.561 124.515C657 123.636 657.618 122.871 658.416 122.22C659.23 121.552 660.206 121.032 661.346 120.657C662.501 120.283 663.795 120.096 665.228 120.096C667.262 120.096 669.004 120.446 670.452 121.145C671.917 121.829 673.032 122.765 673.797 123.953C674.578 125.141 674.969 126.484 674.969 127.981H672.063C672.063 127.07 671.795 126.207 671.258 125.394C670.737 124.58 669.964 123.912 668.938 123.392C667.929 122.871 666.692 122.61 665.228 122.61C663.714 122.61 662.485 122.838 661.541 123.294C660.597 123.75 659.905 124.327 659.466 125.027C659.043 125.727 658.831 126.451 658.831 127.2C658.831 127.786 658.921 128.323 659.1 128.811C659.295 129.283 659.637 129.723 660.125 130.13C660.63 130.537 661.346 130.919 662.273 131.277C663.201 131.635 664.406 131.985 665.887 132.327C668.019 132.799 669.76 133.377 671.111 134.061C672.479 134.728 673.488 135.558 674.139 136.551C674.79 137.527 675.115 138.715 675.115 140.115C675.115 141.206 674.887 142.207 674.432 143.118C673.976 144.013 673.317 144.786 672.454 145.437C671.608 146.089 670.582 146.593 669.378 146.951C668.19 147.309 666.855 147.488 665.374 147.488C663.144 147.488 661.256 147.122 659.71 146.39C658.18 145.641 657.016 144.664 656.219 143.46C655.438 142.239 655.047 140.945 655.047 139.578H657.952C658.05 140.945 658.481 142.028 659.246 142.825C660.011 143.606 660.947 144.16 662.054 144.485C663.177 144.811 664.284 144.974 665.374 144.974C666.871 144.974 668.125 144.754 669.134 144.314C670.143 143.875 670.908 143.297 671.429 142.581C671.95 141.865 672.21 141.092 672.21 140.262Z" fill="#3C2D3D"/>
<g clip-path="url(#clip0_9_17)">
<path d="M149.953 59.7187C146.278 59.7187 143.063 62.9343 143.063 66.6093V62.0156C143.063 58.3406 139.847 55.125 136.172 55.125C132.497 55.125 129.281 58.3406 129.281 62.0156V57.4218C129.281 53.7468 126.066 50.5312 122.391 50.5312C118.716 50.5312 115.5 53.7468 115.5 57.4218V62.0156C115.5 58.3406 112.285 55.125 108.61 55.125C104.935 55.125 101.719 58.3406 101.719 62.0156V96.4687V107.494L90.2346 96.0093C87.4783 93.2531 83.3439 92.7937 80.5877 95.0906C76.9127 97.8468 76.4533 103.359 79.6689 106.575L110.906 137.812H147.656C153.628 122.653 156.844 106.575 156.844 90.0375V66.6093C156.844 62.9343 153.628 59.7187 149.953 59.7187Z" fill="#5E37A4"/>
<path d="M184.406 74.4187C181.65 68.9062 180.731 62.475 182.569 56.0437C183.947 50.9906 184.406 45.4781 183.487 39.9656C181.191 24.8062 168.787 12.4031 153.628 9.64683C145.359 8.2687 137.091 9.64683 130.2 13.3218C123.309 16.9968 115.5 17.9156 108.15 15.1593C102.637 13.3218 96.6656 12.8625 90.2343 13.7812C75.5343 16.9968 63.5906 28.9406 60.8343 43.6406V44.1C58.5375 57.4218 53.9437 70.7437 46.5937 82.6875C42.4593 90.0375 40.6218 98.7656 42.4593 107.494C45.2156 122.194 56.7 134.137 71.4 136.894C73.6968 137.353 76.4531 137.812 78.75 137.812C84.2625 137.812 89.775 136.434 94.3687 134.137L72.7781 112.547C69.5625 109.331 67.725 104.278 68.1843 99.6843C68.6437 94.6312 70.9406 90.4968 75.075 87.7406C80.1281 84.0656 87.0187 83.6062 92.5312 86.8218V62.475C92.5312 53.7468 99.8812 46.3968 108.609 46.3968C109.528 46.3968 109.987 46.3968 110.906 46.3968C113.662 43.6406 117.797 41.8031 122.391 41.8031C126.984 41.8031 131.119 43.6406 133.875 46.3968C138.928 45.4781 144.441 47.3156 147.656 50.9906C148.575 50.9906 149.034 50.9906 149.953 50.9906C158.681 50.9906 166.031 58.3406 166.031 67.0687V90.4968C166.031 103.359 164.194 115.762 160.978 128.166C167.409 126.787 172.922 123.572 177.975 118.978C185.325 112.087 189.459 102.441 189.459 92.3343C189 85.9031 187.622 79.9312 184.406 74.4187Z" fill="#5E37A4"/>
</g>
<g clip-path="url(#clip1_9_17)">
<path d="M31.4644 23.7824C29.5413 30.5863 33.5346 37.7267 40.3385 39.6498C47.1425 41.573 54.2828 37.5796 56.206 30.7757C58.1291 23.9718 54.1358 16.8315 47.3319 14.9083C40.5279 12.9851 33.3876 16.9785 31.4644 23.7824ZM43.7547 22.2467C43.8219 22.5996 43.8892 22.9526 43.8017 23.2619C43.6706 23.7258 43.2302 24.1023 42.8335 24.3241C41.8855 24.7241 41.0048 25.4771 40.7425 26.4049C40.4803 27.3327 39.6869 27.7764 38.7591 27.5142C37.8313 27.2519 37.3876 26.4585 37.6498 25.5307C38.218 23.5205 39.6703 21.9271 41.721 21.1708C42.6253 20.9255 43.5094 21.3424 43.7547 22.2467Z" fill="#5D37A5"/>
<path d="M25.7827 43.8849C24.5588 48.2147 20.1953 50.655 15.8655 49.4312C11.5357 48.2074 9.09537 43.8438 10.3192 39.5141C11.543 35.1843 15.9066 32.7439 20.2363 33.9678C24.5661 35.1916 27.0065 39.5551 25.7827 43.8849Z" fill="#5D37A5"/>
<path d="M42.8088 54.5421C41.7161 58.4079 37.7492 60.6265 33.8834 59.5338C30.0175 58.4411 27.799 54.4742 28.8917 50.6083C29.9844 46.7425 33.9512 44.524 37.8171 45.6167C41.683 46.7094 43.9015 50.6762 42.8088 54.5421Z" fill="#5D37A5"/>
<path d="M19.329 25.3618C19.0667 26.2897 18.2733 26.7334 17.3455 26.4711L12.7065 25.1599C11.7787 24.8976 11.335 24.1042 11.5972 23.1764C11.8595 22.2486 12.6529 21.8049 13.5807 22.0672L18.2197 23.3784C19.1475 23.6407 19.5912 24.434 19.329 25.3618Z" fill="#5D37A5"/>
<path d="M28.5744 16.2858L27.2632 20.9248C27.0009 21.8526 26.2076 22.2963 25.2797 22.0341C24.3519 21.7718 23.9082 20.9784 24.1705 20.0506L25.4817 15.4116C25.744 14.4838 26.5373 14.0401 27.4652 14.3023C28.393 14.5646 28.8367 15.358 28.5744 16.2858Z" fill="#5D37A5"/>
<path d="M22.4089 21.5566C22.2778 22.0205 22.0358 22.286 21.6391 22.5079C20.8457 22.9516 19.9179 22.6893 19.4742 21.896L17.1447 17.7308C16.701 16.9374 16.9633 16.0096 17.7567 15.5659C18.55 15.1222 19.4778 15.3844 19.9215 16.1778L22.251 20.343C22.4728 20.7397 22.5401 21.0927 22.4089 21.5566Z" fill="#5D37A5"/>
</g>
<defs>
<clipPath id="clip0_9_17">
<rect width="147" height="147" fill="white" transform="translate(42 -3.05176e-05)"/>
</clipPath>
<clipPath id="clip1_9_17">
<rect width="51.4218" height="51.4218" fill="white" transform="translate(0.200195 51.6828) rotate(-74.2168)"/>
</clipPath>
</defs>
</svg>
